<svg width="568" height="377" viewBox="0 0 568 377" fill="none" xmlns="http://www.w3.org/2000/svg">
<g clip-path="url(#clip0)">
<path d="M271.8 322.8C125.4 322.8 6.60004 333 6.60004 345.8C6.60004 358.6 170.6 376.4 317 376.4C463.4 376.4 537 358.4 537 345.8C537 333.2 418.4 322.8 271.8 322.8Z" fill="#ECECEC"/>
<path fill-rule="evenodd" clip-rule="evenodd" d="M308.334 201.029C360.912 166.002 471.959 145.561 492.962 137.43C596.768 97.2473 497.655 12.7599 430.534 4.68289C263.195 -15.4551 -21.4005 26.3023 1.27747 189.749C16.0478 296.2 146.456 308.873 308.334 201.029Z" fill="#C6CEE2"/>
<path fill-rule="evenodd" clip-rule="evenodd" d="M512.654 269.467C528.668 258.939 538.34 256.431 551.183 249.911C556.966 246.976 563.039 243.786 566.067 238.764C569.362 233.299 568.245 226.462 564.231 221.367C560.218 216.272 553.653 212.809 546.65 210.942C532.735 207.23 517.523 209.414 503.407 212.695C484.419 217.11 466.078 223.461 448.936 231.558C435.196 238.05 421.771 246.067 414.119 257.524C406.466 268.981 403.97 308.943 457.605 302.249C487.338 298.539 496.64 279.995 512.654 269.467Z" fill="#C6CEE2"/>
<path d="M400.4 331.4L358 220.4C357 217.8 354.2 216.4 351.4 217.4C348.8 218.4 347.4 221.2 348.4 224C348.4 224.2 348.4 224.2 348.6 224.4L398.6 332.4C398.8 332.8 399.4 333.2 399.8 333C400.4 332.4 400.6 331.8 400.4 331.4Z" fill="#89A1AE"/>
<path d="M352.2 334.6L330.8 218C330.4 215.2 327.6 213.4 324.8 213.8C322 214.2 320.2 217 320.6 219.8C320.6 220 320.6 220 320.6 220.2L350 335C350.2 335.6 350.6 335.8 351.2 335.8C352 335.6 352.2 335.2 352.2 334.6Z" fill="#89A1AE"/>
<path d="M275.6 333.8L310.8 220.4C311.6 217.6 310 214.8 307.4 214C304.6 213.2 301.8 214.8 301 217.4C301 217.6 301 217.6 301 217.8L273.8 333.2C273.6 333.8 274 334.2 274.6 334.4C274.8 334.4 275.4 334.2 275.6 333.8Z" fill="#89A1AE"/>
<path d="M242.599 332L292.599 224C293.799 221.4 292.599 218.4 289.999 217.2C287.399 216 284.399 217.2 283.199 219.8C283.199 220 283.199 220 282.999 220.2L240.799 331.2C240.599 331.8 240.799 332.2 241.399 332.4C241.999 332.8 242.399 332.6 242.599 332Z" fill="#89A1AE"/>
<path d="M246 221.2C261.6 235.8 356 232.4 372.8 221.2C383.8 213.8 388.8 156.4 389.8 136.4C390.4 124 385.6 116.6 378.4 113C374 110.8 368.6 109.8 362.8 110.2C324.4 111.8 325.8 179.8 312.4 196.2C295.8 216.2 262 214.6 255.2 214C251.2 213.6 247.6 215 246 216.8C244.8 218.2 244.6 219.8 246 221.2Z" fill="white"/>
<path d="M372.6 222.8C372 222.8 371.6 222.6 371.2 222C370.6 221.2 370.8 220.2 371.6 219.6C380.8 213.4 386.4 165 387.8 136C388.4 125.2 384.8 118 377.4 114.2C373.4 112.2 368.4 111.2 362.6 111.4C361.6 111.4 361 110.8 360.8 109.8C360.8 108.8 361.4 108 362.4 108C368.6 107.8 374.4 108.8 378.8 111C384.8 114 391.8 120.8 391 136C391 136.8 387.2 212.8 373.2 222.2C373.4 222.8 373 222.8 372.6 222.8Z" fill="#89A1AE"/>
<path d="M360.4 227.4C359.6 227.4 359 226.8 358.8 226C358.6 225 359.2 224.2 360 224C363.6 223.2 369 221.6 371.6 219.8C372.4 219.2 373.4 219.4 374 220.2C374.6 221 374.4 222 373.6 222.6C369.6 225.2 362.2 227 360.8 227.4C360.8 227.4 360.6 227.4 360.4 227.4Z" fill="#62737D"/>
<path d="M358 112.4L357.2 109.2L358 109C358.8 108.8 359.8 109.2 360 110.2C360.2 111 359.8 112 358.8 112.2L358 112.4Z" fill="#1E1E77"/>
<path d="M345.4 181.2C345.4 196.2 329.4 208.2 309.8 208.2C290.2 208.2 254.6 211.8 254.6 196.8C254.6 181.8 281.2 154 309.8 154C338.4 154.2 345.4 166.2 345.4 181.2Z" fill="#2A4FAA"/>
<path d="M333.2 33.9999C341.4 45.5999 361.2 43.1999 368 53.7999C375.4 65.3999 366 75.3999 381.6 83.3999C394 89.7999 406.8 105.2 403.2 121.2C400 134.8 389.2 148.6 365 145.8C338.4 142.6 325.8 125.2 311 101.2C291.2 69.1999 312 69.5999 314.2 53.9999C314.6 51.5999 327.4 25.7999 330.4 28.1999C331.6 28.9999 332.4 32.9999 333.2 33.9999C335.4 37.1999 332.4 32.9999 333.2 33.9999Z" fill="#1B1B1B"/>
<path d="M317.6 27.8001C323.8 40.4001 310.4 59.2001 303.2 40.0001C298 26.4001 311.8 15.8001 317.6 27.8001Z" fill="#1B1B1B"/>
<path d="M315.8 78.1999C318.6 79.3999 321.2 80.5999 324 81.9999C327.8 69.5999 327.8 55.7999 323.8 43.3999C321 44.5999 318.4 45.9999 315.6 47.1999C318.8 56.9999 319 68.1999 315.8 78.1999Z" fill="#F5F5F5"/>
<path d="M253.6 102.4C253.4 100.4 253.2 98.6 252.2 97C250.6 94.2 247.4 90.8 243.8 91.4C240.6 92 239.4 96.2 241 98.8C242.4 101 245 100.4 247.2 100.6C249.4 100.8 251.6 101.4 253.2 103L253.6 102.4Z" fill="#F5F5F5"/>
<path d="M303.2 63.5999C308.2 62.3999 314.4 62.5999 318.4 62.5999C318.2 64.5999 317.8 66.9999 320.6 67.7999C323.2 68.5999 326.6 66.1999 327 63.5999C335 65.7999 339.4 69.7999 342.8 73.7999C351.2 83.7999 333.4 154.4 332.8 159.8C332 165.4 308.4 166 299.6 160.8C296.8 159.6 281.6 68.3999 303.2 63.5999Z" fill="#682DB3"/>
<path d="M315.8 47C318.6 45.8 321.2 44.4 324 43.2C325.4 47.6 326.2 52.2 326.6 56.8C325.2 59.2 323.2 60.6 321 60.6C320 60.6 319 60.4 318 59.8C317.8 55.6 317 51.2 315.8 47Z" fill="#DADADA"/>
<path d="M307.4 42.4001C307.4 49.6001 311.6 55.4001 316.6 55.4001C321.6 55.4001 325.6 49.6001 325.6 42.4001C325.6 35.2001 321 31.6001 316.4 29.4001C307.4 24.8001 307.4 35.2001 307.4 42.4001Z" fill="#F5F5F5"/>
<path d="M324.4 135.8C319.6 135.8 313.6 138.6 312.6 140.2C312 141.4 323.8 141.8 325 141.8C329.8 141.8 327.2 135.8 324.4 135.8C323.6 135.6 325 135.8 324.4 135.8Z" fill="white"/>
<path d="M250.6 97.4C250.2 95.6 248.8 94.4 247.2 94C246.4 93.8 245.6 93.8 244.8 94C244.4 94.2 243.8 94.4 243.6 94.8C243.6 95.4 244 96 244.4 96.4C245 97 245.8 97.2 246.6 97.2C248 97.4 249.2 97.2 250.6 97.4Z" fill="#F5F5F5"/>
<path d="M255.4 102.8C255.4 102.8 255.8 103 256.4 103.6C257 104.2 257.8 105 258.8 106C260.8 108 263.6 110.8 266.6 114C268 115.6 269.8 117.2 271.2 118.4C272 119 272.8 119.4 272.8 119.2C272.8 119.2 272.6 118.8 271.6 118.4C271 118.2 270.2 118.2 269.4 118.2C268.4 118.2 267.6 118.6 267 119C266.4 119.4 266 119.6 265.6 120C265.4 120 265.4 120.2 265.4 120.2C265.6 120 265.2 120.4 265.2 120.4L265.4 120.2C265.6 120 265.4 120 265.4 120V119.8L265.6 119.2C266 118.2 266.4 116.8 266.8 115.6C267.8 112.8 268.6 110 269.6 107C273.6 95.1999 278.6 82.9999 285.4 74.3999C287.2 72.1999 289 70.1999 291 68.5999C293 66.9999 295.2 65.5999 297.2 64.5999C299.2 63.5999 301.2 63.1999 302.6 62.9999C303.2 62.9999 303.8 62.7999 304.2 62.7999C304.6 62.7999 304.8 62.7999 304.8 62.7999C308.2 62.5999 311 65.3999 311.2 68.7999C311.2 69.9999 311 71.1999 310.4 71.9999L306.4 78.7999C306.4 78.7999 306.4 78.7999 306.2 78.9999C306 79.1999 305.8 79.3999 305.6 79.5999C305.2 79.9999 304.8 80.5999 304 81.3999C303.2 82.3999 302.4 83.5999 301.6 85.1999C299.8 88.3999 297.6 92.7999 295.6 97.7999C294.6 100.2 293.4 103 292.4 105.6C291.2 108.4 290.2 111.2 289 114C287.8 116.8 286.6 119.8 285.2 122.6C284.4 124 283.8 125.6 282.8 127.2L282 129L281.6 129.8C281.4 130 281.2 130.6 281 130.6L280.8 130.8L280.6 131L280.4 131.2L280.2 131.4C280 131.8 279.6 132.2 279.2 132.6C278.4 133.4 277.6 134.2 276.2 135C275 135.8 273.4 136.4 271.8 136.6C270.2 136.8 268.6 136.6 267.4 136.2C264.8 135.6 263.4 134.4 262.4 133.6C260.2 131.8 259.2 130.2 258.4 128.6C256.6 125.6 255.8 123 255 120.4C253.6 115.4 253.4 111.2 253.4 108.2C253.4 106.6 253.4 105.6 253.6 104.6C253.6 103.8 253.8 103.4 253.8 103.4C254 102.8 254.4 102.6 255 102.6C255.2 102.6 255.4 102.8 255.4 102.8Z" fill="#682DB3"/>
<path d="M380.8 125.8C380.4 122.4 379.4 120.2 378.4 118C376.6 114 374.6 110.8 372.6 107.8C370.6 104.8 368.6 102 366.6 99.6001C364.6 97.0001 362.6 94.6001 360.6 92.4001C358.6 90.2001 356.8 88.2001 355.2 86.4001C351.8 82.8001 349 79.8001 347.2 77.8001C346.2 76.8001 345.6 76.2001 345 75.6001C344.6 75.0001 344.2 74.8001 344.2 74.8001C344.2 74.6001 344 74.6001 343.8 74.4001C338.4 69.0001 329.4 69.0001 324 74.4001C318.6 79.8001 318.6 88.8001 324 94.2001C324 94.2001 324.4 94.6001 324.8 95.0001C325.4 95.6001 326.2 96.4001 327.4 97.6001C329.6 99.6001 332.6 102.4 336.4 105.6C340 108.8 344.2 112.4 348.6 116.2C350.8 118.2 353 120.2 355 122.2C356.2 123.4 357.4 124.6 358.4 125.8C357.4 126 356.4 126.2 355.4 126.4C353.8 126.8 352.4 127.2 350.8 127.4C347.8 128.2 345.2 129.2 342.6 130C340.2 130.8 328.6 135.8 327.4 136.8C326.2 137.8 327.4 139.8 327.4 140C327.4 140.6 328 140.8 328.4 140.8C328.4 140.8 328.8 140.8 329.6 140.6C330.4 140.6 331.4 140.4 333 140.2C335.8 140 339.8 139.8 344.6 140C347 140 349.6 140.2 352.2 140.4C353.6 140.6 354.8 140.6 356.2 140.8C357.6 141 359 141 360.4 141.2C361.2 141.2 362 141.4 362.8 141.4H363.4H363.6H363.8C364 141.4 363.6 141.4 363.8 141.4C364.4 141.4 364.8 141.4 365.4 141.4C366.6 141.4 367.8 141.4 369.4 141.2C371 141 372.8 140.4 374.8 139C376.8 137.8 379 135 379.8 132.4C381 129.8 381 127.6 380.8 125.8Z" fill="#682DB3"/>
<path d="M327.6 140.8C327.2 140.8 326.8 140.4 326.8 140C326.6 139.4 325.6 137.2 327.2 136C328.6 135 340.6 130 342.6 129.2C345 128.2 347.8 127.2 350.8 126.4L352.2 126C353.2 125.8 354.4 125.4 355.4 125.2L357 125C356.2 124.2 355.4 123.4 354.6 122.6C352.2 120.2 350.2 118.4 348.2 116.6C344.4 113.2 340.4 109.8 336 106C335.6 105.6 335.6 105.2 336 104.8C336.4 104.4 336.8 104.4 337.2 104.8C341.6 108.6 345.8 112.2 349.4 115.4C351.4 117.2 353.4 119 355.8 121.4C357 122.6 358.2 123.8 359.4 125C359.6 125.2 359.6 125.6 359.6 125.8C359.6 126 359.2 126.2 359 126.4L356 127C355 127.2 353.8 127.4 352.8 127.8L351.4 128.2C348.6 129 345.8 129.8 343.4 130.8C340.8 131.8 329.4 136.6 328.4 137.4C328 137.8 328.2 138.6 328.6 139.4C328.6 139.6 328.8 139.8 328.8 140C328.6 140.2 328.2 140.6 327.6 140.8C327.8 140.8 327.8 140.8 327.6 140.8Z" fill="#34175A"/>
<path d="M313.6 34.8C318.4 39.2 325.2 42.4 331.4 44.6C340.4 48 333.8 30 332 26.8C321.8 10 296.2 18.8 313.6 34.8C315.4 36.4 313.4 34.6 313.6 34.8Z" fill="#1B1B1B"/>
<path d="M323.2 41C323 43.2 324 45 325.4 45.2C326.8 45.2 328 43.6 328.2 41.4C328.4 39.2 327.4 37.4 326 37.2C324.6 37 323.4 38.8 323.2 41Z" fill="white"/>
<path d="M332.6 65.6C332.2 68 328.4 77.2 323.2 82.2C320.8 84.6 318.6 85.6 316.4 85.6C313.8 85.4 312 84 310.6 81.4C308 76 308.8 66.8 310 62.8H309C307.8 67.2 307 76.2 309.8 81.8C311.2 84.8 313.4 86.4 316.4 86.6C316.6 86.6 316.6 86.6 316.8 86.6C319 86.6 321.4 85.4 324 83C329.2 77.8 333.4 69 333.6 66.2L332.6 65.6Z" fill="#C4E6F9"/>
<path d="M314.4 85.8C314.4 84.8 315.2 84 316.2 84C317.2 84 318 84.8 318 85.8C318 86.8 317.2 87.6 316.2 87.6C315.2 87.8 314.4 86.8 314.4 85.8Z" fill="#C4E6F9"/>
<path d="M309.8 83.8C309.8 82.8 310.6 82 311.6 82C312.6 82 313.4 82.8 313.4 83.8C313.4 84.8 312.6 85.6 311.6 85.6C310.6 85.6 309.8 84.8 309.8 83.8Z" fill="#C4E6F9"/>
<path d="M307.4 79.1999C307.4 78.1999 308.2 77.3999 309.2 77.3999C310.2 77.3999 311 78.1999 311 79.1999C311 80.1999 310.2 80.9999 309.2 80.9999C308.2 80.9999 307.4 80.1999 307.4 79.1999Z" fill="#C4E6F9"/>
<path d="M306.8 74C306.8 73 307.6 72.2 308.6 72.2C309.6 72.2 310.4 73 310.4 74C310.4 75 309.6 75.8 308.6 75.8C307.6 75.8 306.8 75 306.8 74Z" fill="#C4E6F9"/>
<path d="M306.8 69C306.8 68 307.6 67.2 308.6 67.2C309.6 67.2 310.4 68 310.4 69C310.4 70 309.6 70.8 308.6 70.8C307.6 70.8 306.8 70.2 306.8 69Z" fill="#C4E6F9"/>
<path d="M307.4 64.4001C307.4 63.4001 308.2 62.6001 309.2 62.6001C310.2 62.6001 311 63.4001 311 64.4001C311 65.4 310.2 66.2 309.2 66.2C308.2 66.2 307.4 65.4 307.4 64.4001Z" fill="#C4E6F9"/>
<path d="M319.6 84.6C319.6 83.6 320.4 82.8 321.4 82.8C322.4 82.8 323.2 83.6 323.2 84.6C323.2 85.6 322.4 86.4 321.4 86.4C320.4 86.6 319.6 85.8 319.6 84.6Z" fill="#C4E6F9"/>
<path d="M323.2 81C323.2 80 324 79.2 325 79.2C326 79.2 326.8 80 326.8 81C326.8 82 326 82.8 325 82.8C324.2 82.8 323.2 82 323.2 81Z" fill="#C4E6F9"/>
<path d="M326.2 77.1999C326.2 76.1999 327 75.3999 328 75.3999C329 75.3999 329.8 76.1999 329.8 77.1999C329.8 78.1999 329 78.9999 328 78.9999C327 78.9999 326.2 78.1999 326.2 77.1999Z" fill="#C4E6F9"/>
<path d="M328.6 72.8C328.6 71.8 329.4 71 330.4 71C331.4 71 332.2 71.8 332.2 72.8C332.2 73.8 331.4 74.6 330.4 74.6C329.6 74.6 328.6 73.8 328.6 72.8Z" fill="#C4E6F9"/>
<path d="M330.6 68.1999C330.6 67.1999 331.4 66.3999 332.4 66.3999C333.4 66.3999 334.2 67.1999 334.2 68.1999C334.2 69.1999 333.4 70 332.4 70C331.4 70 330.6 69.1999 330.6 68.1999Z" fill="#C4E6F9"/>
<path d="M311.6 337C311.6 337 311.2 336.4 310.6 335.4C310 334.4 309 332.8 307.8 331C305.6 327.2 302.4 321.8 298.8 315.2C291.6 302 282.2 284 274 265.4C269.8 256 266 246.6 262.6 237.4C259.4 228 256.6 219 255.4 210C254.8 205.4 254.4 200.8 255.2 195.8C255.2 195.2 255.4 194.4 255.6 193.8C255.8 193.2 255.8 192.6 256 191.8C256.2 191 256.4 190.4 256.6 189.8C256.8 189 257.2 188.4 257.4 187.6C258.6 184.6 260.4 181.6 263.2 179C264.4 177.8 266 176.6 267.4 175.8C268.8 175 270.4 174.2 271.6 173.8C273 173.4 274.2 173 275.2 172.8C276.2 172.6 277.2 172.4 278 172.4C278.8 172.2 279.6 172.2 280.2 172.2C280.8 172.2 281.2 172.2 281.6 172.2C282.4 172.2 282.8 172.2 282.8 172.2C292.8 173 300.4 181.8 299.4 192C298.6 202 289.8 209.6 279.6 208.6C279.6 208.6 279.6 208.6 279.8 208.6C279.8 208.6 280 208.6 280.2 208.6C280.4 208.6 280.4 208.6 280.8 208.4C281 208.4 281.4 208.2 281.8 208.2C282.2 208.2 282.8 208 283.2 207.8C283.8 207.6 284.4 207.2 285 206.8C285.6 206.4 286.2 205.8 286.8 205.4C287.8 204.2 288.4 203.2 288.4 202.6C288.4 202.4 288.4 202.4 288.4 202.2C288.4 202.2 288.4 202.2 288.2 202.2C288.2 202.2 288 202.2 288 202.4C287.6 203.2 287 205.6 286.8 208.4C286.4 214.2 287 222.4 288.2 231.2C289.4 240 291.4 249.6 293.6 259.2C298 278.4 303.4 297.4 308 311.6C310.2 318.6 312.2 324.6 313.8 328.6C314.6 330.6 315.2 332.2 315.6 333.2C316 334.2 316.2 334.8 316.2 334.8C316.8 336.2 316 337.8 314.6 338.4C313.6 338.6 312.2 338.2 311.6 337Z" fill="#2A4FAA"/>
<path d="M337.2 337C337.2 337 336.8 336.4 336.2 335.4C335.6 334.4 334.6 332.8 333.4 331C331.2 327.2 328 321.8 324.4 315.2C317.2 302 307.8 284 299.6 265.4C295.4 256 291.6 246.6 288.2 237.4C285 228 282.2 219 281 210C280.4 205.4 280 200.8 280.8 195.8C280.8 195.2 281 194.4 281.2 193.8C281.4 193.2 281.4 192.6 281.6 191.8C281.8 191 282 190.4 282.2 189.8C282.4 189 282.8 188.4 283 187.6C284.2 184.6 286 181.6 288.8 179C290 177.8 291.6 176.6 293 175.8C294.4 175 296 174.2 297.2 173.8C298.6 173.4 299.8 173 300.8 172.8C301.8 172.6 302.8 172.4 303.6 172.4C304.4 172.2 305.2 172.2 305.8 172.2C306.4 172.2 306.8 172.2 307.2 172.2C308 172.2 308.4 172.2 308.4 172.2C318.4 173 326 181.8 325 192C324.2 202 315.4 209.6 305.2 208.6C305.2 208.6 305.2 208.6 305.4 208.6C305.4 208.6 305.6 208.6 305.8 208.6C306 208.6 306 208.6 306.4 208.4C306.6 208.4 307 208.2 307.4 208.2C307.8 208.2 308.4 208 308.8 207.8C309.4 207.6 310 207.2 310.6 206.8C311.2 206.4 311.8 205.8 312.4 205.4C313.4 204.2 314 203.2 314 202.6C314 202.4 314 202.4 314 202.2C314 202.2 314 202.2 313.8 202.2C313.8 202.2 313.6 202.2 313.6 202.4C313.2 203.2 312.6 205.6 312.4 208.4C312 214.2 312.6 222.4 313.8 231.2C315 240 317 249.6 319.2 259.2C323.6 278.4 329 297.4 333.6 311.6C335.8 318.6 337.8 324.6 339.4 328.6C340.2 330.6 340.8 332.2 341.2 333.2C341.6 334.2 341.8 334.8 341.8 334.8C342.4 336.2 341.6 337.8 340.2 338.4C339.4 338.6 338 338.2 337.2 337Z" fill="#2A4FAA"/>
<path d="M324.6 316.2C324.4 316.2 324 316 323.8 315.8C318.6 306.4 308.4 287.2 299 266C294.4 255.6 290.6 246.4 287.6 237.8C284.8 229.8 281.8 220.2 280.4 210.2C280.4 209.8 280.6 209.4 281.2 209.2C281.6 209.2 282 209.4 282.2 210C283.6 219.8 286.6 229.2 289.4 237.2C292.4 245.6 296 254.8 300.8 265.2C310.2 286.4 320.4 305.4 325.6 314.8C325.8 315.2 325.6 315.8 325.2 316C324.8 316 324.6 316.2 324.6 316.2Z" fill="#1F387A"/>
<path d="M316.4 334.6C316.4 334.6 316.2 334 315.8 333C315.4 332 314.8 330.4 314 328.4C313.2 326 312.2 323.2 311 319.6C310.2 320.4 309.4 321.2 308.6 321.8C307.2 322.8 305.6 323.6 304 324.2C305.6 327 307 329.4 308.2 331.2C309.4 333 310.2 334.6 311 335.6C311.6 336.6 312 337.2 312 337.2C312.6 338.2 314 338.8 315.2 338.2C316.2 337.6 317 336 316.4 334.6Z" fill="#1B1B1B"/>
<path d="M342 334.6C342 334.6 341.8 334 341.4 333C341 332 340.4 330.4 339.6 328.4C338.8 326.4 338 323.8 337 320.8C335 322.8 332.8 324.6 330.4 325.8C331.6 327.8 332.6 329.8 333.6 331.2C334.8 333 335.6 334.6 336.4 335.6C337 336.6 337.4 337.2 337.4 337.2C338 338.2 339.4 338.8 340.6 338.2C342 337.6 342.6 336 342 334.6Z" fill="#1B1B1B"/>
<path d="M356.6 205.2H96.4001L94.2001 195H358.6L356.6 205.2Z" fill="#FFAA18"/>
<path d="M363.4 195H89.4001L87.2001 185H365.6L363.4 195Z" fill="#FFAA18"/>
<path d="M88.0001 333.8H91.4001L115.2 195H100L88.0001 333.8Z" fill="#FFAA18"/>
<path d="M364.8 333.8H361.6L337.6 195H352.8L364.8 333.8Z" fill="#FFAA18"/>
<path d="M154.4 196.4H89.4C89 196.4 88.6 195.8 88.6 195.2C88.6 194.4 89 194 89.4 194H154.2C154.6 194 155 194.6 155 195.2C155 195.8 154.8 196.4 154.4 196.4Z" fill="#CC8813"/>
<path d="M227.4 206.6H96.4C96 206.6 95.6 206 95.6 205.4C95.6 204.6 96 204.2 96.4 204.2H227.4C227.8 204.2 228.2 204.8 228.2 205.4C228 206 227.6 206.6 227.4 206.6Z" fill="#CC8813"/>
<path d="M240.6 206.6H233.6C233.2 206.6 232.8 206 232.8 205.4C232.8 204.6 233.2 204.2 233.6 204.2H240.6C241 204.2 241.4 204.8 241.4 205.4C241.4 206 241 206.6 240.6 206.6Z" fill="#CC8813"/>
<path d="M248.6 206.6H246.4C246 206.6 245.6 206 245.6 205.4C245.6 204.6 246 204.2 246.4 204.2H248.6C249 204.2 249.4 204.8 249.4 205.4C249.2 206 249 206.6 248.6 206.6Z" fill="#CC8813"/>
<path d="M88.2 335.2C88 335.2 88 335.2 88.2 335.2C87.6 335 87.4 334.4 87.4 333.8L98.4 205.2C98.4 204.6 98.8 204 99.2 204.2C99.6 204.4 99.8 205 99.8 205.6L88.8 334.2C88.8 334.8 88.4 335.2 88.2 335.2Z" fill="#FFAC00"/>
<path d="M91.4001 335.2H88.0001C87.6001 335.2 87.2001 334.6 87.2001 334C87.2001 333.4 87.6001 332.8 88.0001 332.8H91.2C91.6 332.8 92 333.4 92 334C92 334.6 91.8 335.2 91.4001 335.2Z" fill="#FFAC00"/>
<path d="M158.8 196.4H157.8C157.4 196.4 157 195.8 157 195.2C157 194.4 157.4 194 157.8 194H158.8C159.2 194 159.6 194.6 159.6 195.2C159.6 195.8 159.2 196.4 158.8 196.4Z" fill="#FFAC00"/>
<path d="M354.4 294C354 294 353.8 293.6 353.8 293L338.8 205.6C338.6 205 338.8 204.2 339.2 204C339.6 203.8 340 204.2 340.2 204.8L355.2 292.2C355.4 292.8 355.2 293.6 354.8 293.8C354.6 294 354.6 294 354.4 294Z" fill="#CC8813"/>
<path d="M356.6 206.6H356.4C356 206.4 355.8 205.6 356 205L358 194.8C358.2 194.2 358.6 193.8 359 194C359.4 194.2 359.6 195 359.4 195.6L357.4 205.8C357.2 206.2 356.8 206.6 356.6 206.6Z" fill="#FFAC00"/>
<path d="M356.6 206.6H325.8C325.4 206.6 325 206 325 205.4C325 204.6 325.4 204.2 325.8 204.2H356.6C357 204.2 357.4 204.8 357.4 205.4C357.4 206 357 206.6 356.6 206.6Z" fill="#CC8813"/>
<path d="M365.6 186.2H275.8C275.4 186.2 275 185.6 275 185C275 184.2 275.4 183.8 275.8 183.8H365.6C366 183.8 366.4 184.4 366.4 185C366.4 185.6 366 186.2 365.6 186.2Z" fill="#CC8813"/>
<path d="M89.4001 196.4C89.2001 196.4 88.8001 196 88.8001 195.6L86.6001 185.4C86.4001 184.8 86.6001 184 87.0001 183.8C87.4001 183.6 87.8001 183.8 88.0001 184.6L90.2001 194.8C90.4001 195.4 90.2001 196.2 89.8001 196.4C89.6001 196.4 89.6001 196.4 89.4001 196.4Z" fill="#CC8813"/>
<path d="M364.8 335.2H361.6C361.2 335.2 360.8 334.6 360.8 334C360.8 333.4 361.2 332.8 361.6 332.8H364.8C365.2 332.8 365.6 333.4 365.6 334C365.6 334.6 365.2 335.2 364.8 335.2Z" fill="#FFAC00"/>
<path d="M364.8 335.2C364.4 335.2 364.2 334.8 364 334.2L362 310.4C362 309.8 362.2 309 362.6 309C363 308.8 363.4 309.4 363.4 310L365.4 333.8C365.6 334.4 365.4 335 364.8 335.2C365 335.2 364.8 335.2 364.8 335.2Z" fill="#CC8813"/>
<path d="M294.4 184.8H207.8L216 101.2H302.4L294.4 184.8Z" fill="#B0CFE0"/>
<path d="M213.8 178L220.6 108H296.6L289.6 178H213.8Z" fill="#4C5365"/>
<path d="M253.6 176H187V184.8H253.6V176Z" fill="#89A1AE"/>
<path d="M294.2 176H253.4V184.8H294.2V176Z" fill="#B0CFE0"/>
<path d="M302.4 102H248.6C248.2 102 247.8 101.6 247.8 101.2C247.8 100.8 248.2 100.4 248.6 100.4H302.4C302.8 100.4 303.2 100.8 303.2 101.2C303.4 101.6 303 102 302.4 102Z" fill="#62737D"/>
<path d="M294.4 185.6C294.2 185.6 294.2 185.6 294.4 185.6C293.8 185.6 293.6 185.2 293.6 184.6L301.8 101C301.8 100.6 302.2 100.2 302.8 100.2C303.2 100.2 303.6 100.6 303.6 101.2L295.4 184.8C295.2 185.2 294.8 185.6 294.4 185.6Z" fill="#62737D"/>
<path d="M243 102H234.8C234.4 102 234 101.6 234 101.2C234 100.8 234.4 100.4 234.8 100.4H243C243.4 100.4 243.8 100.8 243.8 101.2C243.8 101.6 243.6 102 243 102Z" fill="#62737D"/>
<path d="M230 102H229C228.6 102 228.2 101.6 228.2 101.2C228.2 100.8 228.6 100.4 229 100.4H230C230.4 100.4 230.8 100.8 230.8 101.2C230.8 101.6 230.4 102 230 102Z" fill="#62737D"/>
<path d="M289.8 176.8C289.2 176.8 289 176.4 289 175.8L295.6 107.8C295.6 107.4 296 107 296.6 107C297 107 297.4 107.4 297.4 108L290.8 176C290.6 176.4 290.2 176.8 289.8 176.8Z" fill="#62737D"/>
<path d="M289.8 176.8H273.4C273 176.8 272.6 176.4 272.6 176C272.6 175.6 273 175.2 273.4 175.2H289.8C290.2 175.2 290.6 175.6 290.6 176C290.6 176.4 290.4 176.8 289.8 176.8Z" fill="#62737D"/>
<path d="M187 185.6C186.6 185.6 186.2 185.2 186.2 184.8V176C186.2 175.6 186.6 175.2 187 175.2C187.4 175.2 187.8 175.6 187.8 176V184.8C187.8 185.2 187.4 185.6 187 185.6Z" fill="#1E1E77"/>
<path d="M253.4 176.8H186.8C186.4 176.8 186 176.4 186 176C186 175.6 186.4 175.2 186.8 175.2H253.4C253.8 175.2 254.2 175.6 254.2 176C254.2 176.4 253.8 176.8 253.4 176.8Z" fill="#62737D"/>
<path d="M161.4 55.6C164.6 52.8 164.6 41.4 175 39.8C185.4 38.2 189 45.6 178 50.6C167 55.6 168 58.4 163.6 59.4C159.4 60.6 161.4 55.6 161.4 55.6Z" fill="#F5F5F5"/>
<path d="M162.8 51.6001C162.8 51.6001 130.4 91.6 116.8 87H116.6L105.4 111.4C107.6 112.4 110 113.2 113 113.4C133.6 115.2 168.6 57.6001 168.6 57.6001L162.8 51.6001Z" fill="#EF325E"/>
<path d="M170.8 51.4C170.8 51.8 171 52.2 171.4 52.2L190.4 55.6C190.8 55.6 191.2 55.4 191.2 55L196.8 23C196.8 22.6 196.6 22.2 196.2 22.2L177.2 18.8C176.8 18.8 176.4 19 176.4 19.4L170.8 51.4Z" fill="#B0CFE0"/>
<path d="M177.844 20.3242L173.176 46.9177L190.51 49.9685L195.177 23.3751L177.844 20.3242Z" fill="#682DB3"/>
<g opacity="0.15">
<g opacity="0.15">
<g opacity="0.15">
<g opacity="0.15">
<path opacity="0.15" d="M195.2 23.4L186.8 22L175 37.2L173.2 47L178 47.8L194.8 26.6L195.2 23.4Z" fill="white"/>
</g>
</g>
</g>
</g>
<path d="M180 50.8C180 49.8 180.8 49.2 181.6 49.2C182.6 49.2 183.2 50 183.2 50.8C183.2 51.8 182.4 52.4 181.6 52.4C180.6 52.6 180 51.8 180 50.8Z" fill="#CAE9FA"/>
<path d="M89.0003 47.2C89.8003 58.2 97.0003 66.5999 105.4 66.1999C113.6 65.5999 119.8 56.4 119.2 45.4C118.4 34.4 111.2 26 102.8 26.4C94.4003 27 88.2003 36.2 89.0003 47.2Z" fill="#F5F5F5"/>
<path d="M98.2003 80.8001C102.4 80.8001 106 78.0001 107 73.6001L111.6 52.2001C112.6 47.4001 109.6 42.6001 104.6 41.4001C99.6003 40.4001 95.0003 43.4001 93.8003 48.4001L89.2003 69.8001C88.2003 74.6001 91.2003 79.4001 96.2003 80.6001C97.0003 80.6001 97.6003 80.8001 98.2003 80.8001Z" fill="#F5F5F5"/>
<path d="M111.8 18.4C119 20 117.2 31.2 108.4 35.6C99.6003 40 114.2 54.8 118.4 53.2C123.4 51.4 121.6 67.8 113.8 68.4C103.6 69 108.4 53 108.4 53C108.4 53 103.6 39 102.8 47C102 55 108.6 48.2 106 54.8C103.4 61.4 86.2003 69 83.6003 51.8C80.0003 29.8 100.2 15.8 111.8 18.4Z" fill="#444444"/>
<path d="M189.8 66.0001C191.2 62.0001 200 59.8001 197.4 49.6001C194.8 39.4 188.6 36.6 188.2 48.8001C187.6 61.0001 184.8 60.8001 185.4 65.4001C186.2 69.8001 189.8 66.0001 189.8 66.0001Z" fill="#F5F5F5"/>
<path d="M157.8 112.4C149.8 113.2 143.2 69.8 94.8001 69.8C27.6001 69.8 76.6001 166.2 76.2001 174.2C75.6001 182.2 134.8 176 134.8 176C134.8 176 129 128.6 132.4 127C136 125.4 147.8 144.4 165.4 138C185 131 192.6 64 192.6 64L185 61C185 61 172.2 111 157.8 112.4Z" fill="#EF325E"/>
<path d="M76.2002 175C76.6002 175 77.0002 174.6 77.0002 174.2C77.0002 172.6 75.8002 169 73.2002 161.8C66.4002 142.4 52.0002 102.2 66.0002 82.4C71.6002 74.6 81.2002 70.6 94.6002 70.6C128.2 70.6 141.2 91.6 149 104.2C152.4 109.8 154.8 113.4 157.6 113.2C172.4 111.6 184.8 63.2 185.4 61.2C185.6 60.8 185.2 60.2 184.8 60.2C184.4 60 183.8 60.4 183.8 60.8C183.6 61.2 171 110.2 157.4 111.6C155.6 111.8 153.4 108.2 150.4 103.4C142.8 90.6 129.4 69 95.0002 69C81.0002 69 70.8002 73.2 65.0002 81.6C50.6002 102 64.4002 141.4 72.0002 162.6C74.0002 168.4 75.8002 173 75.6002 174.4C75.4002 174.6 75.8002 175 76.2002 175Z" fill="#A72342"/>
<path d="M132.4 127C135.6 125.6 145.8 141.4 161 139.2C156.6 140.2 134.8 120.2 121.2 105.8C107.8 91.6 110.8 158.8 116.4 177.8C126.6 177.2 134.8 176.2 134.8 176.2C134.8 176.2 129 128.6 132.4 127Z" fill="#D72D55"/>
<path d="M76.0003 174.2C73.4003 190.2 76.4003 226.8 95.6003 225.8C114.8 224.8 150.2 220.8 150.4 237.8C150.6 258.2 143.8 346.2 143.8 346.2L149.6 346C149.6 346 187.4 222.2 171.2 201.2C155 180.2 117.4 176 117.4 176L76.0003 174.2Z" fill="#1B1B1B"/>
<path d="M76.2002 174.2C73.2002 190.2 73.4002 226.8 95.6002 225.8C117.8 224.8 174.4 220.8 174.8 237.8C175 258.2 167.2 346.2 167.2 346.2L173.8 346C173.8 346 217.4 222.2 198.8 201.2C180.2 180.2 136.8 176 136.8 176L76.2002 174.2Z" fill="#1B1B1B"/>
<path d="M167.2 347.2C167.6 347.2 168 346.8 168 346.4C168 345.6 175.8 258.2 175.6 238C175.6 235.8 174.6 233.6 172.8 232C162 222 122 224 100.6 225C98.8001 225 97.2001 225.2 95.8001 225.2C95.4001 225.2 95.0001 225.6 95.0001 226C95.0001 226.4 95.4001 226.8 95.8001 226.8C97.2001 226.8 99.0001 226.6 100.6 226.6C121.8 225.6 161.4 223.6 171.6 233.2C173.2 234.6 173.8 236.2 173.8 238C174 258.2 166.2 345.4 166.2 346.2C166.2 346.6 166.6 347.2 167.2 347.2C167 347.2 167 347.2 167.2 347.2Z" fill="#444444"/>
<path d="M186.2 351.6H165.8C165.8 351.6 163.6 345 167.2 344.8C170.6 344.6 173.8 344.6 173.8 344.6C173.8 344.6 186.8 347.8 186.2 351.6Z" fill="#444444"/>
<path d="M160.6 352H142.8C142.8 352 141 344.8 144 344.8C147 344.6 149.8 344.6 149.8 344.6C149.8 344.6 161 347.8 160.6 352Z" fill="#444444"/>
<path d="M169.2 53.4C169.6 53.4 170.2 53.2 170.4 52.8L177 45.4C177.6 44.8 177.6 43.6 176.8 43C176.2 42.4 175 42.4 174.4 43.2L168 50.6C167.4 51.2 167.4 52.4 168.2 53C168.6 53.2 169 53.4 169.2 53.4Z" fill="#F5F5F5"/>
<path d="M173.8 345.4C174.2 345.4 174.4 345.2 174.6 344.8C176.4 339.8 217.6 221.8 198.8 200.6C180 179.8 137.8 175.6 136 175.4C135.6 175.4 135.2 175.6 135 176.2C135 176.6 135.2 177 135.8 177.2C136.2 177.2 179.2 181.4 197.4 202C215.6 222.4 173.4 343.2 173 344.4C172.8 344.8 173 345.4 173.8 345.4C173.6 345.4 173.6 345.4 173.8 345.4Z" fill="#444444"/>
<path d="M29.6001 349L71.8001 238C72.8001 235.4 75.6001 234 78.4001 235C81.0001 236 82.4001 238.8 81.4001 241.6C81.4001 241.8 81.4001 241.8 81.2001 242L31.2001 350C31.0001 350.4 30.4001 350.8 30.0001 350.6C29.6001 350 29.4001 349.4 29.6001 349Z" fill="#89A1AE"/>
<path d="M77.8001 352.2L99.2001 235.6C99.6001 232.8 102.4 231 105.2 231.4C108 231.8 109.8 234.6 109.4 237.4C109.4 237.6 109.4 237.6 109.4 237.8L80.0001 352.6C79.8001 353.2 79.4001 353.4 78.8001 353.4C78.0001 353.2 77.6001 352.6 77.8001 352.2Z" fill="#89A1AE"/>
<path d="M154.4 351.2L119.2 237.8C118.4 235 120 232.2 122.6 231.4C125.4 230.6 128.2 232.2 129 234.8C129 235 129 235 129 235.2L156.2 350.6C156.4 351.2 156 351.6 155.4 351.8C155 352 154.6 351.8 154.4 351.2Z" fill="#89A1AE"/>
<path d="M187.2 349.6L137.2 241.6C136 239 137.2 236 139.8 234.8C142.4 233.6 145.4 234.8 146.6 237.4C146.6 237.6 146.6 237.6 146.8 237.8L189 348.8C189.2 349.4 189 349.8 188.4 350C188 350.4 187.4 350.2 187.2 349.6Z" fill="#89A1AE"/>
<path d="M184 238.8C168.4 253.4 74.0001 250 57.2001 238.8C46.2001 231.4 41.2001 174 40.2001 154C39.6001 141.6 44.4001 134.2 51.6001 130.6C56.0001 128.4 61.4001 127.4 67.2001 127.8C105.6 129.4 104.2 197.4 117.6 213.8C134.2 233.8 168 232.2 174.8 231.6C178.8 231.2 182.4 232.6 184 234.4C185.2 235.8 185.2 237.4 184 238.8Z" fill="white"/>
<path d="M57.2 240.4C57.8 240.4 58.2 240.2 58.6 239.6C59.2 238.8 59 237.8 58.2 237.2C49 231 43.4 182.6 42 153.6C41.4 142.8 45 135.6 52.4 131.8C56.4 129.8 61.4 128.8 67.2 129C68.2 129 69 128.4 69 127.4C69 126.4 68.4 125.6 67.4 125.6C61.2 125.4 55.4 126.4 51 128.6C45 131.6 38 138.4 38.8 153.6C38.8 154.4 42.6 230.4 56.6 239.8C56.6 240.4 57 240.4 57.2 240.4Z" fill="#89A1AE"/>
<path d="M69.4 245C70.2 245 70.8 244.4 71 243.6C71.2 242.6 70.6 241.8 69.8 241.6C66.2 240.8 60.8 239.2 58.2 237.4C57.4 236.8 56.4 237 55.8 237.8C55.2 238.6 55.4 239.6 56.2 240.2C60.2 242.8 67.6 244.6 69 245C69.2 245 69.4 245 69.4 245Z" fill="#89A1AE"/>
<path d="M472.6 177C474.6 192.6 472.2 228.2 456.6 227.2C441 226.2 412.2 222.4 412 239C411.8 259 417.4 344.4 417.4 344.4L412.8 344.2C412.8 344.2 382.2 223.8 395.2 203.4C408.4 183 438.8 179 438.8 179L472.6 177Z" fill="#444444"/>
<path d="M404 349.8H418.4C418.4 349.8 420 342.8 417.4 342.6C415 342.4 412.8 342.4 412.8 342.4C412.8 342.4 403.6 345.6 404 349.8Z" fill="#1B1B1B"/>
<path d="M472.6 177C475 192.6 474.6 228.2 456.6 227.2C438.6 226.2 392.6 222.4 392.4 239C392.2 259 398.6 344.4 398.6 344.4L393.2 344.2C393.2 344.2 357.8 223.8 373 203.4C388.2 183 423.4 179 423.4 179L472.6 177Z" fill="#444444"/>
<path d="M393.2 343.6C392.8 343.6 392.6 343.4 392.4 343C391 338.2 356.6 223.4 372.2 202.8C387.8 182.2 423.2 178.2 424.6 178C425 178 425.4 178.2 425.6 178.8C425.6 179.2 425.4 179.6 424.8 179.8C424.4 179.8 388.6 184 373.4 204C358.2 224 393.4 341.4 393.8 342.6C394 343 393.6 343.6 393.2 343.6C393.4 343.6 393.2 343.6 393.2 343.6Z" fill="#1B1B1B"/>
<path d="M383 349.6H399.6C399.6 349.6 401.4 343.2 398.6 343C395.8 342.8 393.2 342.8 393.2 342.8C393.2 342.8 382.6 345.8 383 349.6Z" fill="#1B1B1B"/>
<path d="M451.6 86C447.6 86 444 83.2 443 79L438.4 58.2C437.4 53.4 440.4 48.8 445.2 47.8C450 46.8 454.6 49.8 455.6 54.6L460.2 75.4C461.2 80.2 458.2 84.8 453.4 85.8C452.8 86 452.2 86 451.6 86Z" fill="#F5F5F5"/>
<path d="M401.8 135C402.8 112 407.8 75.3999 454.8 75.3999C520.2 75.3999 472.4 169.2 473 177C473.4 184.8 416 178.8 416 178.8L419 140.2C419 140.2 428 187.8 403.8 180.6C397.2 178.6 400.6 165.4 401.8 135Z" fill="#1FA78A"/>
<path d="M429.4 80.1999C433.8 79.3999 438.6 78.7999 444 78.7999C509.4 78.7999 461.6 172.6 462.2 180.4C462.2 180.6 462.2 180.6 462.2 180.8C445.6 182 409.8 182.4 403.8 180.6C397.4 178.6 400.8 165.6 402 135.2C402.6 117.2 405.8 90.7999 429.4 80.1999Z" fill="#27D1AC"/>
<path d="M403.6 181.2H403.4C398 179.6 398.6 172.2 399.8 155.6C400.2 150 400.6 143 401 134.8C401.8 114.4 405.8 89.7999 429 79.1999C429.4 78.9999 430 79.1999 430.2 79.5999C430.4 79.9999 430.2 80.5999 429.8 80.7999C407.4 90.9999 403.6 115.2 402.8 135C402.4 143.2 402 150.2 401.6 155.8C400.6 170.8 400 178.4 404 179.6C404.4 179.8 404.6 180.2 404.6 180.6C404.4 181 404 181.2 403.6 181.2Z" fill="#177D67"/>
<path d="M460.6 53.4C460 64 452.8 72.4 444.8 71.8C436.8 71.2 430.8 62.2 431.4 51.6C432 41 439.2 32.6 447.2 33.2C455.2 33.6 461.2 42.8 460.6 53.4Z" fill="#F5F5F5"/>
<path d="M438.4 25.3999C430 24.9999 424.8 35.3999 436.4 40.7999C448 46.1999 441.6 54.3999 444.2 60.7999C446.8 67.1999 463.4 74.5999 466 57.7999C469.2 36.3999 454.2 25.9999 438.4 25.3999Z" fill="#FFAA18"/>
<path d="M414.6 181.2C414.6 181.2 414.4 181.2 414.6 181.2C413.2 180.8 412.8 179.2 412.6 178C411.4 167.2 420.6 119.8 425.4 117.4C425.8 117.2 426.4 117.4 426.6 117.8C426.8 118.2 426.6 118.8 426.2 119C423.6 120.2 416.6 148.8 414.6 168.6C413.6 178.6 414.8 179.6 414.8 179.6C415.2 179.8 415.6 180.2 415.4 180.6C415.4 181 415 181.2 414.6 181.2Z" fill="#177D67"/>
<path d="M521.6 346.6L479.4 235.6C478.4 233 475.6 231.6 472.8 232.6C470.2 233.6 468.8 236.4 469.8 239.2C469.8 239.4 469.8 239.4 470 239.6L520 347.6C520.2 348 520.8 348.4 521.2 348.2C521.6 347.6 521.8 347 521.6 346.6Z" fill="#89A1AE"/>
<path d="M473.4 349.8L452 233.2C451.6 230.4 448.8 228.6 446 229C443.2 229.4 441.4 232.2 441.8 235C441.8 235.2 441.8 235.2 441.8 235.4L471.2 350.2C471.4 350.8 471.8 351 472.4 351C473.2 350.8 473.6 350.2 473.4 349.8Z" fill="#89A1AE"/>
<path d="M396.8 348.8L432 235.4C432.8 232.6 431.2 229.8 428.6 229C425.8 228.2 423 229.8 422.2 232.4C422.2 232.6 422.2 232.6 422.2 232.8L395 348.2C394.8 348.8 395.2 349.2 395.8 349.4C396.2 349.6 396.6 349.4 396.8 348.8Z" fill="#89A1AE"/>
<path d="M364 347.2L414 239.2C415.2 236.6 414 233.6 411.4 232.4C408.8 231.2 405.8 232.4 404.6 235C404.6 235.2 404.6 235.2 404.4 235.4L362.2 346.4C362 347 362.2 347.4 362.8 347.6C363.2 348 363.8 347.8 364 347.2Z" fill="#89A1AE"/>
<path d="M367.2 236.4C382.8 251 477.2 247.6 494 236.4C505 229 510 171.6 511 151.6C511.6 139.2 506.8 131.8 499.6 128.2C495.2 126 489.8 125 484 125.4C445.6 127 447 195 433.6 211.4C417 231.4 383.2 229.8 376.4 229.2C372.4 228.8 368.8 230.2 367.2 232C366 233.4 365.8 235 367.2 236.4Z" fill="white"/>
<path d="M494 238C493.4 238 493 237.8 492.6 237.2C492 236.4 492.2 235.4 493 234.8C502.2 228.6 507.8 180.2 509.2 151.2C509.8 140.4 506.2 133.2 498.8 129.4C494.8 127.4 489.8 126.4 484 126.6C483 126.6 482.2 126 482.2 125C482.2 124 482.8 123.2 483.8 123.2C490 123 495.8 124 500.2 126.2C506.2 129.2 513.2 136 512.4 151.2C512.4 152 508.6 228 494.6 237.4C494.6 238 494.2 238 494 238Z" fill="#89A1AE"/>
<path d="M481.8 242.6C481 242.6 480.4 242 480.2 241.2C480 240.2 480.6 239.4 481.4 239.2C485 238.4 490.4 236.8 493 235C493.8 234.4 494.8 234.6 495.4 235.4C496 236.2 495.8 237.2 495 237.8C491 240.4 483.6 242.2 482.2 242.6C482 242.6 481.8 242.6 481.8 242.6Z" fill="#62737D"/>
</g>
<defs>
<clipPath id="clip0">
<rect width="568" height="377" fill="white"/>
</clipPath>
</defs>
</svg>
