<svg width="70" height="70" viewBox="0 0 70 70" fill="none" xmlns="http://www.w3.org/2000/svg">
<path d="M35 0C15.6998 0 0 15.7013 0 35C0 54.2987 15.6998 70 35 70C54.3002 70 70 54.2987 70 35C70 15.7013 54.3002 0 35 0ZM48.914 36.2262L28.4974 49.3512C28.2581 49.5064 27.9818 49.5834 27.7084 49.5834C27.4691 49.5834 27.227 49.5235 27.0106 49.4054C26.5405 49.149 26.25 48.659 26.25 48.125V21.875C26.25 21.341 26.5405 20.851 27.0104 20.5946C27.4719 20.3412 28.05 20.3567 28.4972 20.6488L48.9139 33.7738C49.3298 34.0415 49.5832 34.5044 49.5832 35C49.5832 35.4956 49.3298 35.9584 48.914 36.2262Z" fill="white"/>
</svg>
