<svg width="452" height="324" viewBox="0 0 452 324" fill="none" xmlns="http://www.w3.org/2000/svg">
<path d="M220.212 87.1459L225.126 27.3169C225.126 27.3169 241.584 69.323 236.115 87.7046C230.635 106.086 220.212 87.1459 220.212 87.1459Z" fill="#E9D6B8"/>
<path d="M269.614 140.13L242.212 103.814L240.512 91.6858L243.535 92.0595L240.316 80.2195L217.089 79.9346L215.175 98.7935L218.405 99.5002L218.815 110.571L223.131 113.401L238.742 167.44L269.614 140.13Z" fill="#B0BFDE"/>
<path d="M322.397 145.872L263.576 133.088C263.576 133.088 212.984 140.562 211.732 243.704C211.724 244.188 289.065 269.078 289.434 249.572C290.358 200.839 322.397 145.872 322.397 145.872Z" fill="#D1DBEA"/>
<path d="M370.045 124.494L418.948 96.877C418.948 96.877 392.082 134.632 380.021 141.036C367.95 147.441 370.045 124.494 370.045 124.494Z" fill="#E9D6B8"/>
<path d="M305.648 147.795L359.887 122.661L358.668 120.43L372.169 117.222L388.719 140.347L373.791 149.941L371.837 145.964L368.042 140.084L371.135 147.211L356.927 160.087L344.992 161.363L300.301 192.569L305.648 147.795Z" fill="#D1DBEA"/>
<path d="M289.84 248.418L339.572 518.614L320.468 517.774L292.146 430.509L285.769 404.421L252.055 301.157L248.937 245.968L289.84 248.418Z" fill="#163F59"/>
<path d="M230.89 518.488L236.326 409.534L245.996 360.324L258.514 292.71L254.391 246.205L212.408 243.378L213.524 321.182L208.421 391.108L207.268 417.53L208.173 522.128L230.89 518.488Z" fill="#163F59"/>
<path d="M409.515 103.041C409.515 103.041 406.511 93.2949 408.151 90.8862C409.796 88.4849 416.399 80.0859 416.399 80.0859L418.29 78.099C418.29 78.099 421.657 78.9426 417.152 84.537C412.648 90.1351 416.354 88.5922 416.354 88.5922L422.377 85.055L430.111 81.2958L433.322 79.1905C433.322 79.1905 435.055 77.8622 435.738 77.8992C437.715 77.9954 436.91 79.4495 436.91 79.4495L425.123 88.6699L438.336 83.094C438.336 83.094 440.146 82.6611 440.701 83.4566C441.222 84.2077 440.69 84.4778 440.69 84.4778L427.243 94.2643L434.386 92.1479C434.386 92.1479 436.167 91.7668 436.754 92.5179C437.39 93.3393 437.59 93.5428 437.59 93.5428L411.207 105.468L409.515 103.041Z" fill="#E9D6B8"/>
<path d="M426.948 90.6425L436.473 87.2496C436.473 87.2496 438.521 86.258 439.758 86.3912C441.181 86.5355 441.1 87.7602 441.1 87.7602L427.24 94.2648L426.948 90.6425Z" fill="#E9D6B8"/>
<path d="M226.981 40.1408C226.981 40.1408 235.339 34.3133 235.524 31.4051C235.709 28.5006 235.675 17.8113 235.675 17.8113L235.406 15.0807C235.406 15.0807 232.235 13.6673 232.343 20.8564C232.446 28.0455 230.477 24.5416 230.477 24.5416L227.909 18.0444L224.129 10.3114L222.894 6.67427C222.894 6.67427 222.348 4.56527 221.786 4.16937C220.167 3.02237 219.905 4.66887 219.905 4.66887L223.523 19.2025L216.546 6.66317C216.546 6.66317 215.386 5.20167 214.455 5.49027C213.583 5.76037 213.838 6.30057 213.838 6.30057L218.42 22.3031L214.093 16.2314C214.093 16.2314 212.922 14.8291 212.001 15.0585C210.996 15.3138 210.712 15.3582 210.712 15.3582L224.165 41.0177L226.981 40.1408Z" fill="#E9D6B8"/>
<path d="M220.866 19.6243L215.445 11.0773C215.445 11.0773 214.444 9.03494 213.387 8.37264C212.179 7.61414 211.488 8.62424 211.488 8.62424L218.412 22.2994L220.866 19.6243Z" fill="#E9D6B8"/>
<path d="M281.937 119.295C278.619 132.456 277.521 139.241 277.751 140.174C279.336 146.615 296.979 145.228 297.208 141.546C297.438 137.861 303.73 122.88 305.149 120.841C306.575 118.803 283.906 111.491 281.937 119.295Z" fill="#E9D6B8"/>
<path d="M293.262 116.113C297.633 116.956 301.72 118.292 303.786 119.402C301.661 123.091 299.477 126.699 297.811 128.981C293.166 135.345 286.142 135.56 281.483 136.193C280.477 136.33 279.317 136.237 278.102 136.011C278.445 133.658 279.55 128.767 281.941 119.295C282.835 115.743 288.012 115.328 293.262 116.113Z" fill="#E2C59C"/>
<path d="M290.654 83.7935L272.345 115.377C272.345 115.377 268.007 122.869 270.235 125.603C272.463 128.327 280.437 132.249 285.089 131.612C289.745 130.98 296.776 130.765 301.417 124.405C306.058 118.037 314.76 101.387 314.76 101.387C314.76 101.387 315.543 94.69 303.704 92.1C291.866 89.5063 290.654 83.7935 290.654 83.7935Z" fill="#E9D6B8"/>
<path d="M296.174 76.745C294.578 76.3232 291.636 76.0568 289.719 78.0918C287.742 80.1971 287.893 85.1107 289.704 86.8497C291.511 88.5813 305.005 96.5437 307.004 96.91C308.996 97.2726 312.524 98.427 315.462 96.688C317.368 95.5558 314.339 88.9735 310.791 88.104C301.768 85.8951 302.115 78.3027 296.174 76.745Z" fill="#194866"/>
<path d="M311.896 94.8267L303.985 108.476L300.863 116.324L302.466 117.256L305.408 118.962C305.408 118.962 321.078 103.026 317.779 98.2381C314.468 93.4614 312.783 93.9091 311.896 94.8267Z" fill="#194866"/>
<path d="M301.864 118.699C301.177 119.88 301.583 121.397 302.766 122.081L304.011 122.806C305.197 123.491 306.708 123.091 307.396 121.907L310.289 116.912C310.973 115.728 310.57 114.211 309.391 113.523L308.142 112.802C306.963 112.113 305.452 112.52 304.761 113.697L301.864 118.699Z" fill="#E9D6B8"/>
<path d="M279.683 143.333C279.683 143.333 244.654 179.412 235.176 228.889C234.43 232.788 237.331 236.699 237.331 236.699L244.255 233.033C244.251 233.033 261.33 179.109 279.683 143.333Z" fill="#3BB6D5"/>
<path d="M280.148 143.079L278.678 151.489L297.792 143.197L297.338 140.918L280.148 143.079Z" fill="#B0BFDE"/>
<path d="M277.658 137.646L272.197 146.156L280.012 142.878L277.658 137.646Z" fill="#B0BFDE"/>
<path d="M138.382 138.506C138.382 152.407 110.233 338.006 19.2104 245.761C-27.6165 198.309 79.5278 204.033 83.729 162.53C85.1331 148.699 93.7869 98.6049 110.762 137.359C116.759 151.052 138.382 124.605 138.382 138.506Z" fill="#AD5C49"/>
<path d="M74.292 141.647C74.292 141.647 78.29 139.535 67.0941 118.889C55.9019 98.2353 34.5669 70.3003 34.5669 70.3003L56.1458 120.036C56.1458 120.036 65.2688 138.717 74.292 141.647Z" fill="#E9D6B8"/>
<path d="M94.4778 167.726L63.3954 110.028L61.9396 106.546L44.2996 114.368C44.2996 114.368 68.8751 158.676 70.6007 160.618C72.3225 162.564 82.2695 181.279 83.463 184.868C84.6602 188.453 92.7227 205.569 104.029 199.279C115.332 192.978 94.4778 167.726 94.4778 167.726Z" fill="#F0CA67"/>
<path d="M45.5855 85.5995C40.0947 75.8611 42.4226 69.338 41.6983 64.7463C40.9741 60.1546 41.0111 55.167 40.9852 55.2077C38.2139 59.385 39.8693 62.5892 39.4628 64.8129C39.0564 67.0366 39.4776 66.2966 37.2754 62.9555C36.0191 61.0611 37.4047 55.9144 37.8407 52.4956C38.2176 49.5319 37.5895 48.1074 37.5895 48.1074C37.5895 48.1074 35.6311 52.318 34.7332 56.9023C33.6506 62.4264 33.6062 68.6017 33.8169 69.9522C34.2085 72.4201 37.6671 79.0394 40.8743 83.3869C44.4955 88.2857 49.5428 92.6221 45.5855 85.5995Z" fill="#E9D6B8"/>
<path d="M161.646 138.832C161.646 138.832 157.644 136.716 168.84 116.07C180.036 95.4162 201.367 67.4849 201.367 67.4849L179.788 117.22C179.792 117.224 170.673 135.898 161.646 138.832Z" fill="#E9D6B8"/>
<path d="M141.46 164.906L172.546 107.211L173.998 103.726L191.638 111.548C191.638 111.548 167.063 155.863 165.341 157.805C163.619 159.748 154.459 178.792 152.478 182.044C145.938 192.789 145.938 198.779 144.457 197.366C135.197 188.552 141.46 164.906 141.46 164.906Z" fill="#F0CA67"/>
<path d="M190.352 82.788C195.843 73.0496 193.515 66.5228 194.243 61.9348C194.967 57.3394 194.93 52.3555 194.956 52.3962C197.728 56.5698 196.072 59.774 196.479 61.9977C196.889 64.2251 196.464 63.4851 198.666 60.1403C199.922 58.2422 198.537 53.1029 198.101 49.6804C197.724 46.7167 198.356 45.2959 198.356 45.2959C198.356 45.2959 200.31 49.5065 201.208 54.0871C202.291 59.6149 202.339 65.7902 202.121 67.137C201.733 69.6086 198.278 76.2279 195.067 80.568C191.446 85.4705 186.399 89.8069 190.352 82.788Z" fill="#E9D6B8"/>
<path d="M121.148 284.982L113.762 396.63L104.077 504.448L87.5643 504.77C87.5643 504.77 89.434 395.701 88.3476 386.37C87.2539 377.042 78.0681 301.151 88.6284 282.784C99.1814 264.421 121.148 284.982 121.148 284.982Z" fill="#3BB6D5"/>
<path d="M114.438 305.558C114.438 305.558 99.4734 286.329 89.6779 294.361C88.6802 298.894 87.775 304.24 86.9584 310.179C93.4468 370.052 98.7233 374.577 110.281 381.178L114.216 347.245L114.438 305.558Z" fill="#35A3BF"/>
<path d="M144.981 272.183C144.981 272.183 156.983 331.487 157.929 363.606C158.875 395.734 165.023 489.54 165.023 489.54L165.507 505.96L152.741 505.901L129.315 386.428L107.034 276.564L144.981 272.183Z" fill="#3BB6D5"/>
<path d="M138.179 135.209C138.179 148.47 127.589 159.222 114.527 159.222C101.465 159.222 90.8716 148.474 90.8716 135.209C90.8716 121.945 101.461 111.2 114.527 111.2C127.589 111.196 138.179 121.945 138.179 135.209Z" fill="#AD5C49"/>
<path d="M110.396 142.262C110.396 142.262 112.65 155.116 110.769 158.682C108.896 162.257 96.1295 170.471 94.2524 172.968C92.3716 175.466 98.0065 194.746 116.4 191.897C134.794 189.034 142.428 180.083 142.428 177.223C142.428 174.367 150.938 169.398 144.933 167.255C138.932 165.109 129.167 163.681 126.539 160.825C123.909 157.968 120.535 150.831 122.412 143.331C124.289 135.835 110.396 142.262 110.396 142.262Z" fill="#E9D6B8"/>
<path d="M120.398 116.646C120.014 116.547 119.622 116.465 119.22 116.391C118.407 120.809 114.715 126.03 108.999 130.133C107.61 131.132 106.187 131.983 104.765 132.727V136.871C104.765 143.005 110.226 147.971 116.966 147.971C123.705 147.971 129.167 143.002 129.167 136.871V127.532C125.815 125.412 122.608 121.56 120.398 116.646Z" fill="#E9D6B8"/>
<path d="M141.124 274.178L85.2439 289.636L93.9863 240.833L92.0021 183.587C92.0021 183.587 103.261 187.709 113.119 188.304C119.585 188.689 133.39 183.587 133.39 183.587L141.124 274.178Z" fill="#194866"/>
<path d="M84.2797 180.234C84.2797 180.234 88.8393 212.214 89.5599 225.101C90.8568 248.322 69.3223 271.569 68.1953 279.069C67.072 286.573 74.9239 293.654 74.9239 293.654C74.9239 293.654 79.8087 296.507 82.4285 296.866C85.0557 297.221 90.0698 294.816 91.8175 286.154C93.9754 275.443 100.63 238.554 101.953 231.879C103.83 222.422 102.33 194.75 103.83 191.175C105.33 187.605 110.773 176.002 110.023 173.145C109.273 170.289 103.83 165.109 103.83 165.109C103.83 165.109 87.2837 173.449 84.2797 180.234Z" fill="#F0CA67"/>
<path d="M136.206 164.044C136.206 164.044 128.886 166.99 126.636 168.059C124.382 169.132 125.509 180.916 126.636 182.522C127.763 184.128 129.732 220.281 130.013 228.85C130.294 237.423 131.421 271.159 132.825 277.32C134.236 283.477 133.39 290.703 140.148 293.115C146.906 295.528 159.584 284.198 159.584 284.198C159.584 284.198 150.306 266.172 148.617 258.938C146.929 251.712 143.245 242.503 142.683 231.529C142.118 220.547 144.542 203.745 146.596 195.106C148.902 185.386 149.999 172.073 150.568 170.464C151.13 168.862 138.456 164.844 136.206 164.044Z" fill="#F0CA67"/>
</svg>
